<svg xmlns="http://www.w3.org/2000/svg" width="64" height="64" viewBox="0 0 64 64" fill="none">
  <rect width="64" height="64" rx="32" fill="#F5F5F5"/>
  <g transform="translate(16, 16)">
    <path d="M16 8C18.2091 8 20 6.20914 20 4C20 1.79086 18.2091 0 16 0C13.7909 0 12 1.79086 12 4C12 6.20914 13.7909 8 16 8Z" fill="#4CAF50"/>
    <path d="M24 20C24 15.5817 20.4183 12 16 12C11.5817 12 8 15.5817 8 20" stroke="#4CAF50" stroke-width="3" stroke-linecap="round"/>
    <path d="M8 8C10.2091 8 12 6.20914 12 4C12 1.79086 10.2091 0 8 0C5.79086 0 4 1.79086 4 4C4 6.20914 5.79086 8 8 8Z" fill="#4CAF50" opacity="0.7"/>
    <path d="M16 20C16 15.5817 12.4183 12 8 12C3.58172 12 0 15.5817 0 20" stroke="#4CAF50" stroke-width="3" stroke-linecap="round" opacity="0.7"/>
    <path d="M24 8C26.2091 8 28 6.20914 28 4C28 1.79086 26.2091 0 24 0C21.7909 0 20 1.79086 20 4C20 6.20914 21.7909 8 24 8Z" fill="#4CAF50" opacity="0.7"/>
    <path d="M32 20C32 15.5817 28.4183 12 24 12C19.5817 12 16 15.5817 16 20" stroke="#4CAF50" stroke-width="3" stroke-linecap="round" opacity="0.7"/>
  </g>
</svg>